<?xml version="1.0" encoding="UTF-8"?>
<svg version="1.1" xmlns="http://www.w3.org/2000/svg" width="258" height="257">
<path d="M0 0 C9.67852433 8.6656555 14.36495482 19.63283198 15.86669922 32.41235352 C16.51890508 45.073031 13.99599632 57.07548753 11.125 69.3125 C10.76844103 70.88061188 10.41296882 72.44897127 10.05859375 74.01757812 C8.22686544 82.06530153 6.27373841 90.06363226 4 98 C-0.63896306 94.21309138 -4.6493125 90.30424428 -8.51953125 85.734375 C-10.03731592 83.91019463 -10.03731592 83.91019463 -12 82 C-11.47143147 74.07147206 -9.00318065 66.22092989 -7.171875 58.515625 C-3.82605952 44.27950815 -1.73195053 33.21459913 -9.6875 20.25 C-14.63520626 15.43601553 -20.48183845 12.33303455 -27.4296875 11.93359375 C-42.85823474 12.33220363 -54.98723238 18.32098849 -68.5625 25.1875 C-69.58923828 25.70119141 -70.61597656 26.21488281 -71.67382812 26.74414062 C-78.16451949 30.00728528 -84.60119159 33.36256628 -91.0234375 36.7578125 C-100.43398622 41.72865365 -109.90294127 46.57736064 -119.41333008 51.35424805 C-121.21164032 52.2592865 -123.00813427 53.16794118 -124.80297852 54.07983398 C-127.43907554 55.41897976 -130.08014248 56.7477896 -132.72265625 58.07421875 C-133.52768082 58.48548508 -134.33270538 58.8967514 -135.16212463 59.32048035 C-137.07873958 60.27499586 -139.03634358 61.14643913 -141 62 C-141.66 61.67 -142.32 61.34 -143 61 C-136.7669572 55.13585157 -130.38942001 49.62738073 -123.62109375 44.39379883 C-118.79035154 40.65010404 -114.07551759 36.78050404 -109.375 32.875 C-102.7279885 27.37282945 -95.97725421 22.08052491 -89 17 C-87.57285981 15.9479938 -86.14578105 14.89590424 -84.71875 13.84375 C-59.53526009 -4.64353641 -29.34631323 -21.65236578 0 0 Z " fill="#0FA1EB" transform="translate(215,32)"/>
<path d="M0 0 C1.63623843 1.32291618 3.25995205 2.66347467 4.828125 4.06640625 C6.37389275 5.44258437 7.97506937 6.75757635 9.609375 8.02734375 C12.47280053 10.56538002 14.30456103 12.55641411 16 16 C15.74922451 21.14634916 14.28840575 25.66732917 12.72705078 30.55078125 C11.43369949 34.90769871 10.59307563 39.35009591 9.75 43.8125 C9.58081055 44.70710938 9.41162109 45.60171875 9.23730469 46.5234375 C7.35848283 56.92447186 6.20050721 66.71852651 12.25390625 75.90234375 C16.68131316 81.60851124 22.05883537 84.72605772 29.1875 85.875 C46.53577288 87.06527601 61.51011784 78.40953848 76.23095703 70.48144531 C81.36092804 67.73689725 86.52496264 65.05764313 91.6875 62.375 C92.76491455 61.81490234 93.8423291 61.25480469 94.95239258 60.67773438 C102.4679194 56.77810885 110.01383308 52.94910762 117.60107422 49.19140625 C122.46860959 46.77398587 127.32715628 44.33851624 132.18753052 41.90673828 C135.08309904 40.45814957 137.97906686 39.01035961 140.875 37.5625 C142.35613281 36.82193359 142.35613281 36.82193359 143.8671875 36.06640625 C144.57101563 35.71449219 145.27484375 35.36257812 146 35 C146 38 146 38 144.70581055 39.39111328 C144.10551025 39.86274902 143.50520996 40.33438477 142.88671875 40.8203125 C142.2215625 41.35076172 141.55640625 41.88121094 140.87109375 42.42773438 C139.79021484 43.26788086 139.79021484 43.26788086 138.6875 44.125 C137.2016922 45.30452286 135.71601535 46.48421069 134.23046875 47.6640625 C133.50134277 48.23801758 132.7722168 48.81197266 132.02099609 49.40332031 C129.48805123 51.40446303 126.99135789 53.4473958 124.5 55.5 C123.63375 56.20769531 122.7675 56.91539062 121.875 57.64453125 C119.72400903 59.40682412 117.57933125 61.17586851 115.4375 62.94921875 C101.18834603 74.6967227 86.3614726 85.74489278 71 96 C70.17886719 96.56203125 69.35773438 97.1240625 68.51171875 97.703125 C55.11054491 106.38866484 39.44068235 109.84150837 23.6875 106.875 C11.80599858 103.88123586 1.5810831 98.24844202 -5.11328125 87.65625 C-8.6893884 81.11502888 -11.37784429 74.4769784 -12 67 C-12.0928125 65.99839844 -12.185625 64.99679688 -12.28125 63.96484375 C-13.14398456 44.83370479 -8.58553191 17.17106382 0 0 Z " fill="#03DEEC" transform="translate(34,125)"/>
<path d="M0 0 C4.43084574 3.46705594 7.82057355 7.01223153 11.1875 11.5 C14.92746089 16.37655233 18.75142779 21.14542298 22.75 25.8125 C26.98305334 30.76898849 31.04669778 35.81831941 35 41 C35.72316406 41.92683594 36.44632812 42.85367188 37.19140625 43.80859375 C74.07168539 91.22609551 74.07168539 91.22609551 72 116 C70.23632156 129.71259989 64.71917495 140.61521325 54.0546875 149.46875 C40.93321258 159.24749177 24.73384969 159.13610301 9.1875 157 C-5.73141238 154.76456845 -20.39167874 150.69942453 -35 147 C-35 144 -35 144 -32.48046875 141.37109375 C-31.39036868 140.38481274 -30.29232966 139.40725245 -29.1875 138.4375 C-28.64029297 137.94314453 -28.09308594 137.44878906 -27.52929688 136.93945312 C-20.84674658 130.95350807 -20.84674658 130.95350807 -16.65625 131.18359375 C-11.7685301 131.94061059 -6.96686052 133.10614866 -2.15136719 134.22314453 C18.33791595 139.79463563 18.33791595 139.79463563 38.32421875 135.40234375 C44.45059618 130.27560833 48.59864603 125.21632904 49.37109375 117.1015625 C49.75543279 103.33018541 46.77031541 92.48921138 39.84204102 80.58935547 C35.08391673 72.26782534 30.73995761 63.77256947 26.46484375 55.1953125 C25.69323049 53.65343804 24.92138008 52.11168223 24.14930725 50.57003784 C22.55275609 47.37984822 20.95903574 44.18826593 19.36743164 40.99560547 C17.32517824 36.89956167 15.27560475 32.80722956 13.22399044 28.715868 C11.63838511 25.55185902 10.05656972 22.38596751 8.47592354 19.21947861 C7.72073372 17.70776516 6.96435568 16.19664469 6.20676994 14.68613052 C5.15732907 12.59230144 4.11301333 10.49599632 3.07006836 8.39892578 C2.60036369 7.46558914 2.60036369 7.46558914 2.12117004 6.51339722 C0 2.22855936 0 2.22855936 0 0 Z " fill="#08C4EB" transform="translate(159,73)"/>
<path d="M0 0 C0 0.99 0 1.98 0 3 C-2.265625 5.12109375 -2.265625 5.12109375 -5.25 7.4375 C-9.35183964 10.5899359 -9.35183964 10.5899359 -12.859375 14.34765625 C-15 16 -15 16 -18.41796875 15.9375 C-19.95143151 15.65656026 -21.47835125 15.33914637 -23 15 C-23.9895166 14.78730469 -24.9790332 14.57460938 -25.99853516 14.35546875 C-30.61713277 13.33381829 -35.22211677 12.2569886 -39.82617188 11.171875 C-52.06494387 8.36500655 -63.44760754 5.84820745 -74.75 12.5625 C-80.2801356 16.57474873 -83.19266823 21.13443134 -84.58984375 27.82421875 C-86.53601974 44.5525854 -79.7279586 57.98129498 -72.07836914 72.30249023 C-68.75517435 78.52442192 -65.57020457 84.80521888 -62.4375 91.125 C-59.17639621 97.69908877 -55.85106783 104.22452076 -52.375 110.6875 C-48.70570766 117.51363204 -45.34185442 124.45915476 -42.09326172 131.49487305 C-40.43617222 135.06520372 -38.73371017 138.53474167 -36.73828125 141.9296875 C-35 145 -35 145 -35 147 C-35.66 147 -36.32 147 -37 147 C-38.62890625 145.19921875 -38.62890625 145.19921875 -40.5625 142.6875 C-41.28179687 141.76582031 -42.00109375 140.84414062 -42.7421875 139.89453125 C-43.48726562 138.93933594 -44.23234375 137.98414063 -45 137 C-46.39024375 135.28711478 -47.78617184 133.57882888 -49.1875 131.875 C-50.31478516 130.49828125 -50.31478516 130.49828125 -51.46484375 129.09375 C-52.79488113 127.47065354 -54.1251395 125.84773646 -55.45751953 124.2265625 C-63.27059266 114.71370807 -70.90173317 105.08422729 -78.30566406 95.24902344 C-79.46844911 93.7055687 -80.63464895 92.1646824 -81.80371094 90.62597656 C-96.16945054 71.69727044 -108.55122849 53.84785999 -107 29 C-105.20332659 17.5550489 -100.71913455 6.85735962 -92 -1 C-64.5803702 -20.75826265 -29.6158519 -7.37055573 0 0 Z " fill="#07C8EC" transform="translate(129,35)"/>
<path d="M0 0 C3.73910527 2.07194457 5.54549936 3.76550087 7.75390625 7.4921875 C9.15768285 12.58087768 9.4299717 16.23922791 7.62890625 21.2421875 C4.93919102 25.36641751 2.35951876 28.28725166 -2.35546875 29.7890625 C-7.4546485 30.66823142 -11.04887519 29.93702548 -15.51953125 27.36328125 C-19.02507261 24.83326384 -20.89330907 22.17554153 -22.24609375 18.1171875 C-22.687297 12.82274851 -22.5133453 9.16299669 -19.56640625 4.66015625 C-14.52849856 -1.22733942 -7.18028653 -2.82216479 0 0 Z " fill="#0BB7ED" transform="translate(131.24609375,110.8828125)"/>
<path d="M0 0 C0.66 0.33 1.32 0.66 2 1 C-1.3 4.3 -4.6 7.6 -8 11 C-8.66 10.67 -9.32 10.34 -10 10 C-3.84965831 2.51708428 -3.84965831 2.51708428 0 0 Z " fill="#02A5AE" transform="translate(41,31)"/>
<path d="M0 0 C0 0.99 0 1.98 0 3 C-3 5.1875 -3 5.1875 -6 7 C-6.66 6.01 -7.32 5.02 -8 4 C-5.36 2.68 -2.72 1.36 0 0 Z " fill="#00807E" transform="translate(180,160)"/>
<path d="M0 0 C3.03869411 1.51934706 3.64410306 3.98004772 5 7 C5 7.66 5 8.32 5 9 C4.34 9 3.68 9 3 9 C0.8125 6.75 0.8125 6.75 -1 4 C-0.75 1.6875 -0.75 1.6875 0 0 Z " fill="#075C82" transform="translate(89,173)"/>
<path d="M0 0 C0.66 0.33 1.32 0.66 2 1 C-0.64 3.64 -3.28 6.28 -6 9 C-6 6 -6 6 -3.5625 3.375 C-2.716875 2.59125 -1.87125 1.8075 -1 1 C-0.67 0.67 -0.34 0.34 0 0 Z " fill="#0298A2" transform="translate(117,111)"/>
<path d="M0 0 C2 1 2 1 3 3 C1.03533587 4.06775224 -0.96855359 5.06553465 -3 6 C-3.66 5.67 -4.32 5.34 -5 5 C-3.35 3.35 -1.7 1.7 0 0 Z " fill="#008282" transform="translate(77,88)"/>
</svg>
